<svg xmlns="http://www.w3.org/2000/svg" version="1.1" xmlns:xlink="http://www.w3.org/1999/xlink" xmlns:svgjs="http://svgjs.dev/svgjs" width="125" height="50" viewBox="0 0 1000 217"><g transform="matrix(1,0,0,1,-0.6060301662839152,0.35909157484469745)"><svg viewBox="0 0 396 86" data-background-color="#ffffff" preserveAspectRatio="xMidYMid meet" height="217" width="1000" xmlns="http://www.w3.org/2000/svg" xmlns:xlink="http://www.w3.org/1999/xlink"><g id="tight-bounds" transform="matrix(1,0,0,1,0.23998794584844063,-0.1423127900306156)"><svg viewBox="0 0 395.52 86.28421143609683" height="86.28421143609683" width="395.52"><g><svg viewBox="0 0 395.52 86.28421143609683" height="86.28421143609683" width="395.52"><g><svg viewBox="0 0 395.52 86.28421143609683" height="86.28421143609683" width="395.52"><g><svg viewBox="0 0 395.52 86.28421143609683" height="86.28421143609683" width="395.52"><g><svg viewBox="0 0 395.52 86.28421143609683" height="86.28421143609683" width="395.52"><g><svg viewBox="0 0 395.52 86.28421143609683" height="86.28421143609683" width="395.52"><g transform="matrix(1,0,0,1,0,0)"><svg width="395.52" viewBox="-2.8371896743774414 -17.04306983947754 227.93017578125 49.72383117675781" height="86.28421143609683" data-palette-color="#ff0000"><path d="M30.667 0.852v0c-0.371 1.556-0.929 2.88-1.675 3.97-0.753 1.089-1.641 1.984-2.665 2.686-1.019 0.71-2.147 1.247-3.385 1.61-1.238 0.363-2.526 0.594-3.866 0.693-1.331 0.094-2.684 0.077-4.058-0.051-1.373-0.135-2.703-0.346-3.992-0.632v0l-2.666 11.197-11.197-2.666c0.874-3.671 1.754-7.323 2.639-10.956 0.878-3.629 1.774-7.291 2.688-10.987v0c0.497-1.944 0.972-3.894 1.423-5.849 0.447-1.963 0.955-3.926 1.525-5.887v0c2.195-0.122 4.353-0.091 6.475 0.092 2.122 0.183 4.272 0.534 6.452 1.053v0c1.239 0.295 2.45 0.69 3.634 1.184 1.184 0.494 2.289 1.093 3.314 1.796 1.027 0.697 1.949 1.485 2.768 2.366 0.812 0.879 1.464 1.853 1.956 2.922 0.487 1.062 0.799 2.215 0.934 3.461 0.137 1.239 0.035 2.571-0.304 3.998zM19.81-0.869v0c0.247-1.038 0.123-1.927-0.372-2.669-0.49-0.733-1.241-1.221-2.253-1.462v0c-0.337-0.08-0.691-0.134-1.061-0.16-0.377-0.028-0.734-0.041-1.071-0.039v0l-1.961 6.945c0.219 0.086 0.433 0.154 0.64 0.204 0.208 0.049 0.422 0.1 0.642 0.152v0c0.577 0.137 1.158 0.173 1.743 0.107 0.583-0.06 1.125-0.222 1.627-0.487 0.5-0.258 0.932-0.604 1.295-1.038 0.369-0.426 0.626-0.944 0.771-1.553zM60.701 11.996v0c-0.237 1.481-0.637 2.882-1.199 4.203-0.561 1.314-1.261 2.522-2.099 3.624-0.831 1.103-1.788 2.08-2.87 2.933-1.075 0.854-2.242 1.545-3.501 2.073-1.267 0.533-2.607 0.893-4.021 1.078-1.413 0.179-2.873 0.148-4.38-0.093v0c-1.468-0.235-2.834-0.646-4.097-1.233-1.264-0.58-2.418-1.302-3.462-2.164-1.051-0.857-1.968-1.837-2.749-2.941-0.783-1.098-1.411-2.282-1.883-3.552-0.472-1.271-0.782-2.6-0.931-3.988-0.155-1.395-0.117-2.814 0.113-4.255v0c0.226-1.415 0.62-2.777 1.181-4.085 0.559-1.301 1.255-2.503 2.086-3.606 0.837-1.095 1.79-2.073 2.859-2.935 1.071-0.868 2.231-1.577 3.48-2.127 1.249-0.55 2.565-0.923 3.947-1.12 1.381-0.191 2.802-0.169 4.263 0.064v0c2.357 0.377 4.448 1.086 6.273 2.128 1.832 1.042 3.324 2.351 4.475 3.927 1.159 1.576 1.962 3.389 2.411 5.439 0.448 2.05 0.483 4.26 0.104 6.63zM49.766 10.904v0c0.113-0.704 0.12-1.402 0.021-2.093-0.099-0.691-0.301-1.324-0.607-1.9-0.307-0.569-0.725-1.058-1.254-1.466-0.528-0.415-1.163-0.682-1.908-0.802v0c-0.764-0.122-1.47-0.093-2.12 0.086-0.643 0.181-1.221 0.476-1.732 0.888-0.505 0.412-0.924 0.922-1.258 1.53-0.326 0.603-0.546 1.263-0.661 1.981v0c-0.11 0.685-0.12 1.382-0.031 2.091 0.081 0.715 0.272 1.38 0.572 1.996 0.306 0.616 0.719 1.141 1.237 1.575 0.525 0.435 1.169 0.714 1.932 0.836v0c0.764 0.122 1.476 0.081 2.137-0.124 0.654-0.206 1.236-0.528 1.744-0.967 0.503-0.446 0.921-0.987 1.252-1.622 0.337-0.628 0.562-1.297 0.676-2.009zM82.766-5.183l12.328 2.001-13.211 15.425 8.572 18.249-11.586 1.08-6.616-11.246-1.299 11.101-10.277-0.449 3.87-37.65 11.418 1.586-1.796 11.05zM94.31-3.554l22.767 0.386c-0.126 1.545-0.242 3.073-0.348 4.585-0.112 1.512-0.245 3.04-0.398 4.584v0l-10.487 0.372-0.293 3.106 7.359 0.124-0.68 7.64-7.413 0.124-0.301 3.606 6.119 0.103 4.35 0.074c-0.131 1.805-0.264 3.599-0.402 5.384-0.137 1.785-0.261 3.576-0.371 5.375v0l-21.295 0.129zM146.048 7.25v0c0.075 1.598-0.095 3.024-0.51 4.278-0.422 1.255-1.027 2.361-1.816 3.319-0.782 0.964-1.718 1.793-2.806 2.485-1.089 0.692-2.263 1.271-3.523 1.737-1.253 0.459-2.558 0.818-3.914 1.075-1.356 0.251-2.693 0.417-4.011 0.499v0l0.541 11.497-11.497 0.541c-0.177-3.769-0.344-7.522-0.5-11.259-0.162-3.73-0.316-7.497-0.461-11.301v0c-0.061-2.006-0.145-4.011-0.253-6.015-0.115-2.01-0.17-4.036-0.165-6.079v0c2.075-0.725 4.157-1.293 6.247-1.705 2.09-0.412 4.253-0.67 6.49-0.776v0c1.272-0.06 2.545-0.016 3.821 0.131 1.275 0.147 2.502 0.416 3.682 0.808 1.179 0.385 2.284 0.887 3.314 1.506 1.024 0.619 1.92 1.375 2.689 2.266 0.762 0.885 1.381 1.907 1.856 3.067 0.475 1.152 0.746 2.461 0.816 3.926zM135.139 8.603v0c-0.05-1.065-0.416-1.886-1.097-2.461-0.674-0.569-1.531-0.829-2.569-0.78v0c-0.346 0.016-0.701 0.063-1.065 0.14-0.37 0.077-0.716 0.164-1.039 0.259v0l0.039 7.216c0.235 0.022 0.459 0.029 0.672 0.019 0.213-0.01 0.433-0.02 0.659-0.031v0c0.593-0.028 1.161-0.155 1.704-0.381 0.544-0.219 1.02-0.525 1.429-0.918 0.409-0.386 0.728-0.838 0.957-1.356 0.236-0.512 0.34-1.08 0.31-1.707zM169.64 14.309v0l0.178 11.018-20.483 3.916c-0.542-5.722-1.063-11.412-1.565-17.072-0.508-5.659-0.987-11.354-1.435-17.086v0l12.761-1.417c0.021 3.627 0.057 7.245 0.11 10.854 0.053 3.616 0.208 7.248 0.466 10.895v0c0.772-0.052 1.536-0.12 2.291-0.204 0.749-0.083 1.511-0.168 2.286-0.254v0c0.914-0.102 1.811-0.208 2.691-0.319 0.886-0.119 1.786-0.229 2.7-0.331zM167.995-7.277l22.452-3.791c0.159 1.542 0.325 3.065 0.498 4.571 0.167 1.507 0.316 3.033 0.449 4.579v0l-10.242 2.287 0.281 3.107 7.257-1.225 0.732 7.634-7.265 1.481 0.364 3.599 6.035-1.019 4.289-0.724c0.202 1.798 0.399 3.587 0.592 5.366 0.192 1.779 0.399 3.563 0.619 5.352v0l-20.911 4.028zM207.532-15.667l11.66-1.376-5.469 18.536 11.37 12.257-9.287 5.527-6.678-8.765-2.724 11.07-11.274-1.257 5.5-16.054-11.582-12.71 10.364-5.282 6.253 8.713z" opacity="1" transform="matrix(1,0,0,1,0,0)" fill="#ff0000" class="undefined-text-0" data-fill-palette-color="primary" id="text-0"></path></svg></g></svg></g></svg></g></svg></g><g></g></svg></g></svg></g><defs></defs></svg><rect width="395.52" height="86.28421143609683" fill="none" stroke="none" visibility="hidden"></rect></g></svg></g></svg>