<svg xmlns="http://www.w3.org/2000/svg" version="1.1" xmlns:xlink="http://www.w3.org/1999/xlink" xmlns:svgjs="http://svgjs.dev/svgjs" width="100" height="100" viewBox="0 0 1000 1000"><rect width="1000" height="1000" fill="#ffffff"></rect><g transform="matrix(0.7,0,0,0.7,149.57576430406107,346.7584745133289)"><svg viewBox="0 0 396 174" data-background-color="#ffffff" preserveAspectRatio="xMidYMid meet" height="439" width="1000" xmlns="http://www.w3.org/2000/svg" xmlns:xlink="http://www.w3.org/1999/xlink"><g id="tight-bounds" transform="matrix(1,0,0,1,0.2399962871608068,-0.23128722850381678)"><svg viewBox="0 0 395.52 174.4625728257605" height="174.4625728257605" width="395.52"><g><svg viewBox="0 0 395.52 174.4625728257605" height="174.4625728257605" width="395.52"><g transform="matrix(1,0,0,1,0,107.82486909761796)"><svg viewBox="0 0 395.52 66.63770372814253" height="66.63770372814253" width="395.52"><g><svg viewBox="0 0 395.52 66.63770372814253" height="66.63770372814253" width="395.52"><g><svg viewBox="0 0 395.52 66.63770372814253" height="66.63770372814253" width="395.52"><g transform="matrix(1,0,0,1,0,0)"><svg width="395.52" viewBox="1.3200000524520874 -35.939998626708984 221.97999572753906 37.39999771118164" height="66.63770372814253" data-palette-color="#0063db"><g class="undefined-text-0" data-fill-palette-color="primary" id="text-0"><path d="M29.69-23.49L29.69-23.49Q29.69-21.12 28.98-19.29 28.27-17.46 27.04-16.09 25.81-14.72 24.15-13.77 22.49-12.82 20.59-12.22 18.7-11.62 16.67-11.34 14.65-11.06 12.7-11.04L12.7-11.04 12.7 0.34 1.32 0.34Q1.32-5.25 1.34-10.79 1.37-16.33 1.42-21.97L1.42-21.97Q1.46-24.95 1.44-27.93 1.42-30.91 1.56-33.94L1.56-33.94Q4.69-34.86 7.81-35.33 10.94-35.79 14.26-35.79L14.26-35.79Q16.14-35.79 18.02-35.49 19.9-35.18 21.62-34.52 23.34-33.86 24.82-32.87 26.29-31.88 27.37-30.52 28.44-29.15 29.06-27.4 29.69-25.66 29.69-23.49ZM18.85-22.66L18.85-22.66Q18.85-24.24 17.88-25.13 16.92-26.03 15.38-26.03L15.38-26.03Q14.87-26.03 14.32-25.94 13.77-25.85 13.28-25.73L13.28-25.73 12.99-18.6Q13.33-18.55 13.65-18.55 13.96-18.55 14.31-18.55L14.31-18.55Q15.19-18.55 16-18.85 16.82-19.14 17.46-19.69 18.09-20.24 18.47-20.98 18.85-21.73 18.85-22.66ZM61.2-17.24L61.2-17.24Q61.2-15.01 60.69-12.95 60.18-10.89 59.21-9.08 58.25-7.28 56.87-5.77 55.49-4.27 53.77-3.2 52.05-2.12 50.02-1.53 48-0.93 45.73-0.93L45.73-0.93Q43.53-0.93 41.54-1.49 39.55-2.05 37.81-3.06 36.08-4.08 34.68-5.51 33.27-6.93 32.29-8.68 31.3-10.42 30.75-12.43 30.2-14.43 30.2-16.6L30.2-16.6Q30.2-18.73 30.71-20.76 31.22-22.8 32.19-24.61 33.15-26.42 34.52-27.93 35.89-29.44 37.58-30.54 39.28-31.64 41.26-32.25 43.23-32.86 45.43-32.86L45.43-32.86Q48.97-32.86 51.89-31.76 54.81-30.66 56.87-28.63 58.93-26.59 60.07-23.69 61.2-20.8 61.2-17.24ZM50.36-16.6L50.36-16.6Q50.36-17.65 50.06-18.64 49.75-19.63 49.17-20.4 48.58-21.17 47.71-21.64 46.85-22.12 45.73-22.12L45.73-22.12Q44.58-22.12 43.67-21.7 42.77-21.29 42.12-20.57 41.48-19.85 41.14-18.88 40.79-17.92 40.79-16.85L40.79-16.85Q40.79-15.82 41.09-14.79 41.38-13.77 41.97-12.94 42.55-12.11 43.42-11.6 44.28-11.08 45.43-11.08L45.43-11.08Q46.58-11.08 47.5-11.54 48.41-11.99 49.05-12.76 49.68-13.53 50.02-14.53 50.36-15.53 50.36-16.6ZM81.56-35.94L93.87-34.96 82.1-18.7 92.01-1.42 80.68 0.59 73.26-9.96 72.87 1.07 62.71 1.46 63.5-35.94 74.87-35.3 73.99-24.27 81.56-35.94ZM94.23-35.21L116.74-35.21Q116.59-32.91 116.47-30.66 116.35-28.42 116.15-26.12L116.15-26.12 105.8-25.59 105.56-22.51 112.83-22.51 112.3-14.94 104.97-14.7 104.73-11.13 110.78-11.13 115.08-11.13Q114.93-8.45 114.78-5.8 114.62-3.15 114.49-0.49L114.49-0.49 93.45 0 94.23-35.21ZM146.01-23.49L146.01-23.49Q146.01-21.12 145.3-19.29 144.59-17.46 143.36-16.09 142.13-14.72 140.47-13.77 138.81-12.82 136.92-12.22 135.02-11.62 133-11.34 130.97-11.06 129.02-11.04L129.02-11.04 129.02 0.34 117.64 0.34Q117.64-5.25 117.67-10.79 117.69-16.33 117.74-21.97L117.74-21.97Q117.79-24.95 117.76-27.93 117.74-30.91 117.89-33.94L117.89-33.94Q121.01-34.86 124.14-35.33 127.26-35.79 130.58-35.79L130.58-35.79Q132.46-35.79 134.34-35.49 136.22-35.18 137.94-34.52 139.66-33.86 141.14-32.87 142.62-31.88 143.69-30.52 144.77-29.15 145.39-27.4 146.01-25.66 146.01-23.49ZM135.17-22.66L135.17-22.66Q135.17-24.24 134.21-25.13 133.24-26.03 131.7-26.03L131.7-26.03Q131.19-26.03 130.64-25.94 130.09-25.85 129.6-25.73L129.6-25.73 129.31-18.6Q129.65-18.55 129.97-18.55 130.29-18.55 130.63-18.55L130.63-18.55Q131.51-18.55 132.33-18.85 133.14-19.14 133.78-19.69 134.41-20.24 134.79-20.98 135.17-21.73 135.17-22.66ZM168.81-13.92L168.81-13.92 167.79-3.08 147.23-1.46Q147.38-9.99 147.56-18.41 147.74-26.83 148.01-35.35L148.01-35.35 160.71-35.35Q160.14-30 159.63-24.67 159.12-19.34 158.9-13.92L158.9-13.92Q160.05-13.87 161.17-13.87 162.29-13.87 163.44-13.87L163.44-13.87Q164.81-13.87 166.13-13.89 167.44-13.92 168.81-13.92ZM170.57-35.21L193.08-35.21Q192.93-32.91 192.81-30.66 192.69-28.42 192.49-26.12L192.49-26.12 182.14-25.59 181.89-22.51 189.17-22.51 188.63-14.94 181.31-14.7 181.06-11.13 187.12-11.13 191.42-11.13Q191.27-8.45 191.11-5.8 190.95-3.15 190.83-0.49L190.83-0.49 169.78 0 170.57-35.21ZM211.77-35.6L223.3-34.23 213.78-17.68 221.88-3.27 211.68-0.1 207.28-10.06 202.11-0.05 191.56-3.86 200.54-18.02 192.34-32.91 203.52-35.6 207.53-25.78 211.77-35.6Z" fill="#0063db" data-fill-palette-color="primary"></path></g></svg></g></svg></g></svg></g></svg></g><g transform="matrix(1,0,0,1,161.27391824770598,0)"><svg viewBox="0 0 72.97216350458804 92.09330655229299" height="92.09330655229299" width="72.97216350458804"><g><svg xmlns="http://www.w3.org/2000/svg" xmlns:xlink="http://www.w3.org/1999/xlink" version="1.1" x="0" y="0" viewBox="-250.70001220703125 140.98709106445312 63.399993896484375 80.01290893554688" enable-background="new -269 131 100 100" xml:space="preserve" height="92.09330655229299" width="72.97216350458804" class="icon-icon-0" data-fill-palette-color="accent" id="icon-0"><path d="M-200.1 163.7l-1-0.8c-1.2-1-3.1-0.6-3.8 0.8-0.3 0.7-0.6 7.7-0.6 8.9 0 0.2 0 0.6 0 0.7 0 1-0.9 1.8-1.9 1.6-0.8-0.1-1.4-0.9-1.4-1.7-0.1-12-3.7-20.4-10.5-26.7-4.1-3.8-9-7.2-10.5-4.6-0.4 0.7 0.2 2.2 0.9 4.1 1.4 4.3-2.9 11.2-9 18.1-5.7 6.5-12.8 14.5-12.8 26.4 0 16 15.1 30.5 31.7 30.5 16.6 0 31.7-14.5 31.7-30.5C-187.3 180.4-192.1 170.4-200.1 163.7zM-219 215.2c-7.2 0-13.1-5.9-13.1-13.1 0-3.6 1.4-6.8 3.8-9.2l7.2-8.6c1.1-1.3 3.2-1.3 4.3 0l7.2 8.6c2.3 2.4 3.8 5.6 3.8 9.2C-205.9 209.3-211.8 215.2-219 215.2z" fill="#d90000" data-fill-palette-color="accent"></path></svg></g></svg></g><g></g></svg></g><defs></defs></svg><rect width="395.52" height="174.4625728257605" fill="none" stroke="none" visibility="hidden"></rect></g></svg></g></svg>